<?xml version="1.0" encoding="UTF-8" standalone="no"?>
<svg
   xmlns:svg="http://www.w3.org/2000/svg"
   xmlns="http://www.w3.org/2000/svg"
   xmlns:sodipodi="http://sodipodi.sourceforge.net/DTD/sodipodi-0.dtd"
   xmlns:inkscape="http://www.inkscape.org/namespaces/inkscape"
   inkscape:export-ydpi="70.220001"
   inkscape:export-xdpi="70.220001"
   inkscape:export-filename="/home/kilisio/google_drive/projects/software/git_clones/personalized/Manta/static/imgs/icon.png"
   inkscape:version="1.1-dev (1:0.92.0+devel+202005110039+9ce7266)"
   sodipodi:docname="default_logo.svg"
   id="svg11"
   version="1.1"
   height="350"
   width="350">
  <sodipodi:namedview
     inkscape:current-layer="svg11"
     inkscape:window-maximized="1"
     inkscape:window-y="26"
     inkscape:window-x="0"
     inkscape:cy="175"
     inkscape:cx="175"
     inkscape:zoom="1.58"
     inkscape:showpageshadow="false"
     inkscape:pagecheckerboard="true"
     showgrid="false"
     id="namedview13"
     inkscape:window-height="716"
     inkscape:window-width="1366"
     inkscape:pageshadow="2"
     inkscape:pageopacity="0"
     guidetolerance="10"
     gridtolerance="10"
     objecttolerance="10"
     borderopacity="1"
     bordercolor="#666666"
     pagecolor="#ffffff" />
  <defs
     id="defs7">
    <linearGradient
       gradientUnits="userSpaceOnUse"
       gradientTransform="matrix(1.1101006,0,0,0.9008193,52.999999,91.999998)"
       y2="1.6299391e-09"
       y1="219.79991"
       x2="8.1546352e-09"
       x1="219.79991"
       id="a">
      <stop
         id="stop2"
         offset="0%"
         stop-color="#3023AE" />
      <stop
         id="stop4"
         offset="100%"
         stop-color="#C86DD7" />
    </linearGradient>
  </defs>
  <g
     id="g834">
    <circle
       style="fill:#ffffff;fill-opacity:1;fill-rule:evenodd;stroke-width:1"
       id="path15"
       cx="175"
       cy="175"
       r="175" />
    <path
       fill="url(#a)"
       fill-rule="evenodd"
       d="m 176.35556,288.15164 c 0.9605,-8.4731 4.4684,-50.82717 6.32592,-56.81634 3.20062,-10.31969 7.73283,-16.95206 13.59663,-19.8971 17.9139,-8.09736 19.92384,-1.14869 47.69038,-17.34342 12.09187,-8.54722 13.43542,-18.89386 14.33111,-37.33786 0.8957,-11.69619 10.30049,-35.53844 23.28806,-35.53844 3.63576,0 6.71771,0 11.19619,2.24927 6.7177,4.49853 4.03062,-3.59883 1.34354,-6.29795 -9.4048,-8.54722 -16.12251,-10.79649 -27.31869,-11.6962 -20.60098,-1.79941 -36.72348,7.64751 -46.57612,5.39824 -9.85264,-2.24926 -2.68708,-17.92846 -10.74834,-18.82816 -8.06125,-0.899712 -5.8573,12.36177 -12.98757,15.67919 -3.26769,1.52032 -10.74833,3.14897 -21.49667,3.14897 -10.74834,0 -18.22898,-1.62865 -21.49667,-3.14897 -7.13027,-3.31742 -4.92632,-16.578902 -12.98757,-15.67919 -8.06126,0.8997 -0.8957,16.5789 -10.74834,18.82816 -9.85264,2.24927 -25.97514,-7.19765 -46.576121,-5.39824 -11.19618,0.89971 -17.91389,3.14898 -27.31869,11.6962 -2.68708,2.69912 -5.37416,10.79649 1.34355,6.29795 4.47847,-2.24927 7.56042,-2.24927 11.19618,-2.24927 12.98757,0 22.39236,23.84225 23.28806,35.53844 0.89569,18.444 2.23924,28.79064 14.331111,37.33786 27.76654,16.19473 30.20303,9.24606 48.11692,17.34342 5.99749,3.01219 10.60199,9.88176 13.81347,20.60871 1.75763,5.87079 4.61392,48.01993 5.53705,56.20154 0.0673,2.35129 2.77838,2.35129 2.85661,-0.0968 z"
       id="path9"
       style="fill:url(#a)" />
  </g>
</svg>
